<?xml version="1.0" encoding="iso-8859-1"?>
<!-- Generator: Adobe Illustrator 19.0.0, SVG Export Plug-In . SVG Version: 6.00 Build 0)  -->
<svg version="1.1" id="Capa_1" xmlns="http://www.w3.org/2000/svg" xmlns:xlink="http://www.w3.org/1999/xlink" x="0px" y="0px"
	 viewBox="0 0 478.952 478.952" style="enable-background:new 0 0 478.952 478.952;" xml:space="preserve">
<g>
	<g>
		<path d="M387.476,254.952h-16c0.021-6.338-2.487-12.422-6.968-16.904l-59.064-60.432l-25.88-30.664l-1.008-1.264
			c-3.987-6.728-11.259-10.82-19.08-10.736h-40V117.48c9.555-3.378,15.958-12.394,16-22.528V69.816
			c14.086-3.637,23.946-16.317,24-30.864V0l-34.4,22.952h-45.6c-13.255,0-24,10.745-24,24v48c0.042,10.134,6.445,19.15,16,22.528
			v17.472h-48c-13.255,0-24,10.745-24,24v96h32v176h-24c-13.255,0-24,10.745-24,24s10.745,24,24,24h80v-152h16v152h104
			c13.255,0,24-10.745,24-24v-16c0-13.255-10.745-24-24-24h-16v-48h-32V202.264l10.144,10.144l59.512,60.888
			c4.492,4.512,10.601,7.042,16.968,7.024c0.472,0,0.912-0.104,1.376-0.128v190.76c0,4.418,3.582,8,8,8s8-3.582,8-8V272.888
			l0.968-0.96c0.304-0.304,0.52-0.664,0.8-0.976h22.232c4.418,0,8-3.582,8-8S391.894,254.952,387.476,254.952z M171.476,46.952
			c0-4.418,3.582-8,8-8h50.4l13.6-9.048v9.048c0,8.837-7.163,16-16,16h-56V46.952z M171.476,70.952h48v24c0,4.418-3.582,8-8,8h-32
			c-4.418,0-8-3.582-8-8V70.952z M203.476,118.952v40c0,4.418-3.582,8-8,8s-8-3.582-8-8v-16v-24H203.476z M171.476,150.952v8
			c0,13.255,10.745,24,24,24s24-10.745,24-24v-8h24v120h-96v-16h40c13.255,0,24-10.745,24-24s-10.745-24-24-24h-19.944l-17.224-56
			H171.476z M172.46,222.952h15.016c4.418,0,8,3.582,8,8s-3.582,8-8,8H177.38L172.46,222.952z M115.476,238.952v-80
			c0-4.418,3.582-8,8-8h10.096l27.072,88H115.476z M171.476,462.952h-64c-4.418,0-8-3.582-8-8s3.582-8,8-8h64V462.952z
			 M171.476,430.952h-24v-80h24V430.952z M171.476,310.952v24h-24v-16v-32h96v48h-24v-24H171.476z M243.476,350.952v16h-24v-16
			H243.476z M275.476,382.952v48h32c4.418,0,8,3.582,8,8v16c0,4.418-3.582,8-8,8h-88v-80H275.476z M275.476,195.64l-16-16v-28.688
			c2.736,0,2.832,0,6.52,4.664l22.624,26.88l-6.48,6.472L275.476,195.64z M353.132,260.608l-1.376,1.376
			c-3.149,2.975-8.065,3.003-11.248,0.064l-53.784-55.032l6.4-6.4l6.248-6.248l53.72,54.968c1.51,1.48,2.369,3.501,2.384,5.616
			C355.482,257.075,354.638,259.112,353.132,260.608z"/>
	</g>
</g>
<g>
</g>
<g>
</g>
<g>
</g>
<g>
</g>
<g>
</g>
<g>
</g>
<g>
</g>
<g>
</g>
<g>
</g>
<g>
</g>
<g>
</g>
<g>
</g>
<g>
</g>
<g>
</g>
<g>
</g>
</svg>
