<?xml version="1.0" encoding="UTF-8" standalone="no"?><!DOCTYPE svg PUBLIC "-//W3C//DTD SVG 1.1//EN" "http://www.w3.org/Graphics/SVG/1.1/DTD/svg11.dtd"><svg width="100%" height="100%" viewBox="0 0 296 119" version="1.1" xmlns="http://www.w3.org/2000/svg" xmlns:xlink="http://www.w3.org/1999/xlink" xml:space="preserve" xmlns:serif="http://www.serif.com/" style="fill-rule:evenodd;clip-rule:evenodd;stroke-linejoin:round;stroke-miterlimit:2;"><path d="M139.548,55.902c0,0.136 0.007,0.273 0.022,0.409c0.208,1.939 1.846,3.457 3.89,3.608l34.56,2.57l-0.422,9.723c-0.06,1.301 0.546,2.534 1.62,3.333c1.072,0.8 2.485,1.062 3.795,0.703l10.069,-2.754c2.252,-0.615 3.554,-2.847 2.902,-4.984c-0.648,-2.138 -3,-3.372 -5.252,-2.755l-4.412,1.206l0.349,-8.017c0.095,-2.171 -1.633,-4.014 -3.91,-4.183l-15.302,-1.137l48.964,-13.395c13.046,-3.566 24.686,-11.894 33.666,-24.082c2.458,-3.338 6.402,-5.389 10.818,-5.632c5.009,-0.276 10.053,2.334 12.551,6.488c2.142,3.56 2.488,7.575 0.983,11.303c-1.441,3.568 -0.247,7.501 2.973,9.794c3.369,2.396 5.323,5.97 5.506,10.065c0.215,4.783 -2.592,9.535 -6.986,11.834c-3.876,2.024 -8.365,2.278 -12.319,0.694c-14.436,-5.781 -28.961,-6.952 -42.004,-3.384l-12.739,3.483c-2.25,0.617 -3.552,2.847 -2.902,4.986c0.65,2.138 3.002,3.371 5.254,2.755l12.737,-3.485c11.158,-3.05 23.728,-1.991 36.356,3.067c6.364,2.549 13.547,2.161 19.712,-1.061c7.264,-3.799 11.726,-11.354 11.373,-19.233c-0.295,-6.553 -3.453,-12.295 -8.895,-16.165c-0.177,-0.126 -0.221,-0.269 -0.141,-0.466c2.435,-6.027 1.891,-12.484 -1.535,-18.179c-4.122,-6.856 -12.135,-10.993 -20.412,-10.537c-7.027,0.383 -13.327,3.686 -17.286,9.058c-7.853,10.659 -17.902,17.906 -29.057,20.957l-71.456,19.544c-1.832,0.502 -3.07,2.092 -3.07,3.869Z" style="fill-rule:nonzero;"/><path d="M38.16,113.398c10.658,-8.179 22.426,-12.503 34.037,-12.503l106.117,0c2.051,0 3.809,-1.393 4.175,-3.308c0.365,-1.915 -0.764,-3.805 -2.685,-4.489l-32.46,-11.553l3.243,-9.232c0.431,-1.227 0.214,-2.579 -0.584,-3.629c-0.798,-1.051 -2.078,-1.672 -3.441,-1.672l-49.895,0c-2.343,0 -4.244,1.802 -4.244,4.027c0,2.224 1.901,4.028 4.244,4.028l44.006,0l-2.674,7.613c-0.721,2.054 0.4,4.284 2.537,5.045l14.372,5.115l-82.711,0c-13.573,0 -27.189,4.942 -39.373,14.292c-3.337,2.561 -7.725,3.497 -12.038,2.57c-4.893,-1.054 -8.98,-4.884 -10.167,-9.535c-1.019,-3.982 -0.184,-7.929 2.353,-11.118c2.427,-3.048 2.427,-7.145 0,-10.191c-2.537,-3.189 -3.372,-7.137 -2.353,-11.118c1.187,-4.651 5.274,-8.482 10.167,-9.535c4.313,-0.929 8.701,0.007 12.038,2.568c12.184,9.352 25.8,14.294 39.373,14.294l6.325,0c2.345,0 4.244,-1.804 4.244,-4.028c0,-2.225 -1.899,-4.027 -4.244,-4.027l-6.325,0c-11.608,0 -23.379,-4.324 -34.037,-12.503c-5.371,-4.12 -12.387,-5.637 -19.253,-4.16c-8.085,1.739 -14.577,7.821 -16.537,15.49c-1.63,6.373 -0.271,12.721 3.83,17.873c0.133,0.166 0.133,0.315 0,0.483c-2.971,3.73 -4.503,8.089 -4.503,12.63c0,1.729 0.223,3.485 0.673,5.24c1.96,7.672 8.452,13.752 16.537,15.493c6.866,1.476 13.882,-0.04 19.253,-4.16Z" style="fill-rule:nonzero;"/><path d="M199.094,84.656c-1.486,0.705 -2.345,2.127 -2.345,3.606c0,0.604 0.143,1.219 0.448,1.798c1.048,1.989 3.597,2.797 5.695,1.802l9.071,-4.307c2.095,-0.994 2.946,-3.413 1.896,-5.402c-1.048,-1.99 -3.596,-2.796 -5.692,-1.801l-9.073,4.304Z" style="fill-rule:nonzero;"/><path d="M192.213,105.477c0,1.032 0.413,2.062 1.242,2.849l4.536,4.304c1.658,1.574 4.345,1.574 6.001,0c1.658,-1.573 1.658,-4.122 0,-5.695l-4.536,-4.305c-1.657,-1.573 -4.343,-1.573 -6.001,0c-0.829,0.787 -1.242,1.817 -1.242,2.847Z" style="fill-rule:nonzero;"/><path d="M120.881,56.668c1.658,1.573 4.344,1.573 6.002,0c1.657,-1.574 1.657,-4.125 0,-5.696l-4.536,-4.304c-1.658,-1.574 -4.346,-1.574 -6.001,0c-0.829,0.786 -1.245,1.816 -1.245,2.846c0,1.032 0.416,2.062 1.245,2.849l4.535,4.305Z" style="fill-rule:nonzero;"/></svg>