<svg id="Capa_1" enable-background="new 0 0 512 512" height="512" viewBox="0 0 512 512" width="512" xmlns="http://www.w3.org/2000/svg"><g><path d="m211.839 52.402c-5.205 6.455-4.183 15.918 2.285 21.111l23.333 18.737c6.438 5.306 6.758 16.049.722 24.487-.006.009-.011.019-.018.028-.006.008-.013.016-.019.024-5.72 8.069-16.427 11.152-23.408 6.747l-25.082-16.3c-6.943-4.511-16.24-2.543-20.754 4.407-12.447 19.167-24.461 39.801-36.726 63.083-3.884 7.372-1.009 16.506 6.396 20.324l26.594 13.712c6.324 3.369 10.461 12.38 5.462 24.104-3.825 8.995-13.632 14.072-21.44 11.11l-27.831-10.984c-7.752-3.058-16.516.789-19.507 8.568-9.444 24.557-17.063 47.186-23.292 69.181-2.256 7.968 2.379 16.265 10.35 18.521l28.787 8.143c7.908 2.355 12.638 12.441 10.333 22.06-.002.01-.003.02-.006.03-.002.011-.007.021-.009.031-2.376 10.102-10.669 16.938-18.906 15.582l-29.464-5.222c-8.186-1.446-15.964 4.029-17.393 12.183-4.565 26.073-7.542 49.831-9.1 72.632-.563 8.225 5.618 15.361 13.839 15.98l29.83 2.245c7.3.668 14.606 12.714 14.495 23.924-.083 8.326 6.646 15.15 14.999 15.15h119.964c8.239 0 14.937-6.646 15-14.885.043-5.627 6.635-11.391 14.985-10.685.045.004 30.05 2.262 30.05 2.262 8.337.623 15.557-5.677 16.095-13.988.886-13.672 2.755-28.587 5.715-45.596 1.417-8.144-4.021-15.899-12.161-17.342 0 0-29.635-5.251-29.682-5.259-6.839-1.146-13.561-6.887-12.112-13.217 1.679-6.785 9.842-8.902 16.682-6.902.043.012 28.996 8.203 28.996 8.203 7.972 2.256 16.257-2.376 18.515-10.345 3.803-13.42 8.491-27.361 14.756-43.874 2.911-7.673-.884-16.261-8.518-19.273 0 0-27.989-11.046-28.031-11.063-6.667-2.561-11.497-9.128-9.17-15.498 2.712-4.951 9.931-7.286 17.824-3.246l26.664 13.749c7.319 3.775 16.271.935 20.113-6.281 8.183-15.364 15.805-28.448 23.303-39.999 4.509-6.946 2.535-16.231-4.408-20.744 0 0-25.228-16.396-25.266-16.42-6.094-3.884-9.74-11.437-5.793-17.1 3.76-5.189 12.455-4.067 17.924.411.037.03 23.503 18.874 23.503 18.874 6.417 5.152 15.839 4.19 21.058-2.267 9.092-11.25 20.514-23.836 32.163-35.441 5.901-5.879 5.888-15.465-.071-21.324 0 0-21.459-21.094-21.491-21.125-4.973-4.799-7.432-13.345-2.579-17.656 6.472-5.753 6.737-15.781.593-21.868l-81.255-80.503c-5.633-5.581-14.633-5.813-20.547-.534-7.798 6.96-18.559 7.927-24.533 2.215l-21.339-20.976c-5.879-5.779-15.318-5.732-21.14.107-16.349 16.401-34.229 28.09-50.277 47.992zm69.405 383.68 14.936 2.647c-.972 6.573-1.775 12.868-2.417 18.935l-15.048-1.133c-19.651-1.625-37.377 9.437-44.306 25.469h-94.978c-5.055-19.767-19.895-37.263-40.143-38.972-.045-.004-15-1.129-15-1.129 1.21-12.771 2.883-25.963 5.048-39.827 0 0 14.691 2.604 14.734 2.611 19.082 3.21 37.855-6.963 47.645-24.243l92.855 21.305c3.075 16.929 17.564 31.105 36.674 34.337zm38.703-92.46c-2.235 6.272-4.271 12.283-6.123 18.088l-14.629-4.138c-18.219-5.298-37.43.584-47.862 14.945l-92.852-21.304c-1.321-19.625-13.939-37.202-32.411-42.613-.045-.013-14.397-4.073-14.397-4.073 3.782-12.287 8.041-24.886 12.854-38.029 0 0 13.802 5.447 13.844 5.463 18.164 6.98 38.841.656 51.664-14.207l86.773 39.375c-.304 18.198 11.76 34.256 28.924 40.883zm42.235-88.482c-3.149 5.218-6.334 10.71-9.581 16.52l-13.588-7.006c-16.526-8.676-36.536-6.873-49.821 5.151l-86.749-39.364c2.742-19.439-6.128-39.168-23.343-48.243-.04-.021-13.228-6.821-13.228-6.821 6.724-12.278 13.401-23.778 20.156-34.715 0 0 12.508 8.128 12.547 8.153 16.234 10.338 37.764 8.25 53.402-3.677l77.197 55.863c-4.023 17.696 4.608 35.844 20.264 45.856zm-78.564-208.412c13.384 13.181 34.783 16.213 53.622 6.784l63.688 63.099c-6.68 15.369-2.903 34.99 11.094 48.545l10.702 10.521c-4.894 5.169-9.65 10.401-14.119 15.533l-11.907-9.562c-14.976-12.221-35.205-13.84-49.994-4.992l-77.165-55.841c6.561-18.749 1.844-39.582-13.14-51.828-.033-.027-11.08-8.897-11.08-8.897 8.364-8.286 17.843-15.888 27.201-24.271z"/><path d="m303.952 105.478 44.843 39.865c6.218 5.529 15.697 4.919 21.177-1.244 5.504-6.191 4.946-15.673-1.245-21.177l-44.843-39.865c-6.192-5.505-15.673-4.946-21.177 1.244-5.504 6.191-4.946 15.673 1.245 21.177z"/><path d="m299.928 212.679-51.883-30.134c-7.161-4.16-16.344-1.727-20.504 5.437-4.161 7.164-1.727 16.344 5.438 20.504l51.883 30.134c7.148 4.153 16.336 1.74 20.504-5.437 4.161-7.163 1.727-16.343-5.438-20.504z"/><path d="m250.477 314.399-56.844-19.204c-7.845-2.649-16.36 1.561-19.012 9.41-2.651 7.848 1.562 16.36 9.41 19.012l56.844 19.204c7.814 2.639 16.349-1.527 19.012-9.41 2.652-7.848-1.561-16.36-9.41-19.012z"/><path d="m222.377 423.936-59.529-7.495c-8.237-1.04-15.722 4.79-16.757 13.008-1.034 8.22 4.79 15.722 13.009 16.756l59.529 7.495c8.251 1.038 15.726-4.819 16.757-13.008 1.034-8.219-4.791-15.721-13.009-16.756z"/></g></svg>