<?xml version="1.0"?>
<svg xmlns="http://www.w3.org/2000/svg" id="Outline" viewBox="0 0 512 512" width="512" height="512"><path d="M472,272a24.028,24.028,0,0,0,24-24V56a24.028,24.028,0,0,0-24-24H40A24.028,24.028,0,0,0,16,56V248a24.028,24.028,0,0,0,24,24h8v16H24a8,8,0,0,0-8,8V456a24.028,24.028,0,0,0,24,24H472a24.028,24.028,0,0,0,24-24V296a8,8,0,0,0-8-8H464V272Zm8-216V248a8.009,8.009,0,0,1-8,8h-8v-8a23.844,23.844,0,0,0-2.346-10.341A7.972,7.972,0,0,0,464,232V72a8,8,0,0,0-8-8H336V48H472A8.009,8.009,0,0,1,480,56ZM320,296a64,64,0,1,1-64-64A64.072,64.072,0,0,1,320,296Zm-16-72V208H416v16Zm-80-33.376a24,24,0,0,1,0-45.248Zm16-45.248a24,24,0,0,1,0,45.248ZM272,160h16v32H272Zm8-64H72a23.889,23.889,0,0,0-8,1.376V80H448v64H304V120A24.027,24.027,0,0,0,280,96ZM192,64V48H320V64Zm160,96v32H336V160Zm16,0h16v32H368Zm32,0h16v32H400Zm32,0h16v32H432Zm-112,0v32H304V160Zm112,48h16v16H432ZM40,256a8.009,8.009,0,0,1-8-8V56a8.009,8.009,0,0,1,8-8H176V64H56a8,8,0,0,0-8,8V256ZM64,120a8.009,8.009,0,0,1,8-8H280a8.009,8.009,0,0,1,8,8v24H263.979A40,40,0,1,0,256,199.978V200a8,8,0,0,0,8,8h24v14.7A79.956,79.956,0,0,0,176.4,288H151.978a40,40,0,1,0-63.956,0H64Zm64,166.624V241.376a24,24,0,0,1,0,45.248Zm-16,0a24,24,0,0,1,0-45.248ZM176.4,304a79.433,79.433,0,0,0,3.282,16H32V304ZM472,464H40a8.009,8.009,0,0,1-8-8V336H186.763a79.922,79.922,0,0,0,138.474,0H480V456A8.009,8.009,0,0,1,472,464ZM416,288H335.6a79.433,79.433,0,0,0-3.282-16H416Zm64,32H332.317a79.433,79.433,0,0,0,3.282-16H480Zm-48-32V264a8,8,0,0,0-8-8H325.237a80.479,80.479,0,0,0-12.178-16H440a8.009,8.009,0,0,1,8,8v40Z"/><path d="M120,208a40,40,0,1,0-40-40A40.045,40.045,0,0,0,120,208Zm24-40a24.039,24.039,0,0,1-16,22.624V145.376A24.039,24.039,0,0,1,144,168Zm-32-22.624v45.248a24,24,0,0,1,0-45.248Z"/><path d="M232,256v16H216a8,8,0,0,0-8,8v32a8,8,0,0,0,8,8h16v16a8,8,0,0,0,8,8h32a8,8,0,0,0,8-8V320h16a8,8,0,0,0,8-8V280a8,8,0,0,0-8-8H280V256a8,8,0,0,0-8-8H240A8,8,0,0,0,232,256Zm16,24V264h16v16a8,8,0,0,0,8,8h16v16H272a8,8,0,0,0-8,8v16H248V312a8,8,0,0,0-8-8H224V288h16A8,8,0,0,0,248,280Z"/><path d="M456,368H328a8,8,0,0,0-8,8v64a8,8,0,0,0,8,8H456a8,8,0,0,0,8-8V376A8,8,0,0,0,456,368Zm-8,64H336V384H448Z"/><path d="M104,400H56a8,8,0,0,0,0,16h48a8,8,0,0,0,0-16Z"/><circle cx="360" cy="408" r="8"/><circle cx="392" cy="408" r="8"/><circle cx="424" cy="408" r="8"/><path d="M104,432H56a8,8,0,0,0,0,16h48a8,8,0,0,0,0-16Z"/></svg>
